<?xml version="1.0" standalone="no"?>
<!DOCTYPE svg PUBLIC "-//W3C//DTD SVG 20010904//EN"
 "http://www.w3.org/TR/2001/REC-SVG-20010904/DTD/svg10.dtd">
<svg version="1.0" xmlns="http://www.w3.org/2000/svg"
 width="1024.000000pt" height="1024.000000pt" viewBox="0 0 1024.000000 1024.000000"
 preserveAspectRatio="xMidYMid meet">
<metadata>
Created by potrace 1.16, written by Peter Selinger 2001-2019
</metadata>
<g transform="translate(0.000000,1024.000000) scale(0.100000,-0.100000)"
fill="#33FF33" stroke="none">
<path d="M5102 8477 c-2 -131 -3 -139 -23 -144 -16 -5 -19 -11 -14 -31 4 -16
1 -28 -7 -33 -9 -6 -4 -11 15 -18 l27 -11 0 -240 c0 -153 -4 -240 -10 -240
-20 0 -50 -41 -50 -67 0 -25 -8 -31 -83 -62 -45 -19 -102 -45 -127 -57 l-45
-22 -18 24 c-13 17 -28 24 -52 24 -40 0 -55 -20 -55 -73 l0 -34 -252 -124
c-139 -68 -255 -125 -258 -127 -3 -1 -14 17 -25 40 -12 24 -37 53 -57 67 l-36
23 90 177 c50 97 92 177 93 179 2 2 20 -4 40 -12 76 -32 179 -10 249 52 75 68
74 204 -2 286 -110 117 -328 68 -371 -84 l-12 -45 -184 0 -183 0 -6 45 c-5 36
-10 46 -26 46 -13 0 -16 -4 -9 -12 7 -8 2 -10 -16 -7 -42 9 -161 -34 -183 -65
-32 -44 -63 -112 -53 -112 6 0 8 -7 4 -16 -3 -9 -13 -14 -24 -11 -31 8 -10
-14 28 -29 18 -8 39 -12 45 -8 7 4 8 3 4 -4 -5 -8 2 -12 18 -12 l26 0 0 -264
c0 -225 -2 -265 -15 -270 -20 -7 -19 -46 1 -74 11 -17 17 -55 20 -137 l5 -114
-31 -16 c-48 -25 -63 -57 -57 -123 l5 -57 -76 -77 -75 -77 -45 26 c-25 15 -61
29 -81 32 l-36 6 -24 93 c-21 82 -22 94 -9 105 28 22 28 44 -1 71 -17 17 -38
26 -59 26 -28 0 -32 -4 -42 -40 -6 -23 -21 -47 -36 -56 -31 -21 -26 -27 12
-13 23 9 37 8 65 -4 35 -14 38 -20 53 -86 9 -38 16 -76 16 -84 0 -8 -20 -18
-52 -26 -28 -6 -67 -23 -86 -37 -38 -30 -29 -35 -108 56 -26 30 -57 59 -68 63
-16 6 92 -116 127 -144 4 -3 -4 -29 -18 -58 -50 -98 -31 -225 43 -295 19 -17
28 -35 25 -45 -4 -12 -3 -13 5 -3 8 12 15 11 40 -2 17 -9 55 -19 84 -24 l53
-7 3 -108 c2 -98 1 -110 -20 -137 -19 -27 -21 -34 -10 -62 8 -23 9 -35 1 -45
-14 -16 3 -17 19 -1 15 15 14 39 22 -302 l6 -295 2 303 2 302 25 10 c16 6 25
17 25 32 0 34 6 40 115 113 55 37 105 74 112 83 18 22 43 -2 44 -42 l1 -31 9
26 c8 21 14 25 40 21 22 -3 37 2 54 18 l24 22 92 -36 c51 -20 94 -34 96 -32 2
1 -37 20 -87 40 l-90 38 0 37 c0 33 -5 40 -40 60 -22 12 -40 30 -40 39 0 9 -2
130 -5 269 -6 248 -6 251 15 258 11 4 31 18 44 32 19 20 27 23 42 14 57 -32
395 -178 392 -170 -2 6 -69 39 -148 73 -233 101 -248 110 -256 153 -4 21 -13
50 -20 65 -12 23 -11 27 3 32 9 4 13 9 10 13 -4 3 -13 0 -21 -6 -9 -8 -27 -10
-46 -6 -30 7 -30 7 -30 75 0 66 1 68 29 78 58 21 181 77 181 84 0 4 -30 -7
-67 -24 -38 -17 -85 -37 -105 -44 l-38 -13 0 49 c0 27 7 61 17 78 17 29 17 31
-2 52 -17 19 -19 41 -22 278 l-3 257 48 21 47 21 106 -206 106 -206 -28 -23
c-41 -34 -63 -100 -56 -173 3 -34 9 -65 14 -68 32 -23 35 -40 13 -73 l-22 -33
26 28 c27 29 27 29 67 13 51 -21 94 -20 144 3 65 29 115 104 115 172 0 9 17
25 38 34 20 10 139 68 264 130 158 78 231 109 242 103 24 -14 61 1 79 31 13
21 48 42 147 85 137 60 164 63 180 23 6 -16 9 -17 9 -6 1 9 12 24 25 33 23 15
29 14 93 -13 153 -64 189 -84 217 -118 24 -29 34 -34 57 -29 21 4 46 -6 111
-45 133 -81 135 -77 6 10 -69 46 -76 54 -69 74 8 21 13 22 161 25 96 1 157 -1
164 -8 29 -29 81 5 55 36 -14 17 -56 19 -61 3 -2 -7 -59 -13 -157 -17 -129 -4
-156 -3 -165 10 -30 40 -91 42 -113 4 -8 -14 -15 -13 -58 8 -28 13 -79 36
-115 50 -81 34 -102 49 -95 69 4 8 54 36 113 63 99 45 155 74 140 74 -3 0 -58
-25 -123 -55 -64 -30 -122 -55 -129 -55 -7 0 -22 11 -35 23 -21 23 -22 30 -21
260 1 175 4 237 13 237 7 0 18 4 26 9 12 8 10 16 -9 48 -21 33 -25 55 -30 173
l-7 135 -1 -138z m-974 -610 c6 -24 25 -62 42 -85 l30 -42 -85 -169 c-47 -93
-91 -173 -98 -179 -7 -5 -37 -12 -68 -15 l-55 -5 -107 206 c-72 138 -104 209
-97 216 16 16 12 26 -7 20 -14 -5 -15 -4 -4 4 8 6 20 8 26 5 9 -3 11 5 9 24
-4 23 -3 24 4 8 8 -17 10 -15 21 18 l13 37 183 0 183 0 10 -43z m-576 -1204
c9 -3 19 -15 22 -26 3 -12 6 -133 6 -269 l0 -247 -29 -21 c-29 -20 -33 -27
-45 -82 -5 -22 -32 -45 -120 -103 -62 -41 -118 -75 -123 -75 -5 0 -18 8 -29
19 -17 16 -20 33 -23 124 l-2 105 49 16 c27 9 66 32 87 52 26 24 42 31 49 24
16 -16 30 -12 16 5 -10 12 -9 27 4 76 24 85 6 181 -45 235 l-21 22 78 82 c55
57 82 79 93 74 9 -3 23 -8 33 -11z"/>
<path d="M4813 8579 c-46 -13 -73 -53 -73 -106 0 -38 5 -50 34 -79 24 -24 43
-34 65 -34 39 0 85 23 105 52 36 51 9 139 -49 164 -38 16 -38 16 -82 3z"/>
<path d="M4163 8405 c-56 -24 -71 -93 -30 -139 49 -56 139 -33 153 39 8 47
-11 84 -53 102 -38 15 -30 15 -70 -2z"/>
<path d="M6217 8059 c7 -8 73 -40 147 -70 l134 -54 6 -37 c8 -49 40 -78 86
-78 28 0 40 -5 49 -22 11 -22 11 -22 8 5 -3 19 1 31 13 37 44 23 43 116 -1
156 -34 30 -93 25 -130 -12 l-31 -31 -131 54 c-73 30 -139 57 -147 61 -12 5
-13 3 -3 -9z"/>
<path d="M5856 8033 c-4 -4 -46 -24 -94 -44 -72 -31 -90 -35 -102 -25 -31 26
-44 28 -22 4 27 -29 23 -34 -42 -53 -38 -11 -42 -10 -59 11 -26 33 -69 32 -96
-2 -22 -28 -28 -64 -10 -64 6 0 8 10 5 23 -3 12 -3 16 0 9 3 -6 10 -9 16 -6 6
4 8 -7 6 -27 -2 -31 0 -34 22 -31 14 1 39 17 55 35 33 37 129 74 166 64 16 -4
19 -3 10 6 -8 8 12 23 86 58 54 26 91 48 82 48 -9 1 -19 -2 -23 -6z"/>
<path d="M7075 7781 c-53 -25 -103 -75 -126 -125 -25 -55 -25 -157 0 -211 32
-69 120 -135 180 -135 28 0 32 -23 29 -179 l-3 -134 -58 -30 c-55 -29 -60 -30
-109 -18 -45 10 -53 9 -70 -6 -18 -16 -21 -16 -31 -2 -7 9 -53 49 -102 89
-101 82 -119 101 -140 148 -10 22 -21 32 -36 32 -27 0 -141 99 -187 162 -18
27 -41 48 -49 48 -8 0 -46 30 -83 66 -37 36 -71 61 -74 55 -4 -5 25 -40 64
-77 38 -37 70 -72 70 -79 0 -6 15 -18 33 -27 17 -8 64 -46 104 -82 54 -50 74
-76 79 -101 7 -41 27 -59 55 -52 16 4 38 -10 92 -59 40 -35 94 -81 121 -101
48 -36 48 -37 42 -83 -5 -39 -3 -50 14 -65 12 -11 20 -13 20 -6 0 7 5 9 10 6
6 -4 8 -12 4 -18 -3 -7 2 -3 12 8 16 20 16 20 11 -2 -8 -35 34 -30 71 8 27 28
30 37 26 71 l-6 38 56 25 c31 14 59 25 63 25 12 0 -4 -112 -18 -121 -12 -8
-12 -10 0 -18 8 -5 18 -29 21 -53 l7 -43 2 40 c0 23 6 46 13 53 9 9 9 18 0 37
-7 14 -12 46 -12 71 0 43 1 45 44 64 44 19 68 40 44 40 -7 -1 -24 -7 -38 -15
-49 -28 -50 -26 -50 135 l0 150 30 0 c68 0 155 56 191 124 22 43 24 44 49 31
56 -29 100 -44 100 -34 0 6 -27 22 -59 36 l-59 25 -4 73 c-3 59 -9 81 -33 121
-61 97 -209 142 -310 95z"/>
<path d="M2638 7281 c-1 -4 -50 -32 -108 -60 -145 -72 -165 -88 -189 -143 -11
-26 -25 -48 -31 -48 -5 0 -10 -8 -10 -18 0 -10 -7 -28 -16 -40 -8 -12 -12 -22
-8 -22 5 0 3 -5 -4 -12 -8 -8 -15 -8 -25 0 -10 9 -12 24 -7 57 5 33 4 42 -5
35 -7 -6 -16 -5 -24 3 -10 9 -11 8 -5 -8 7 -19 7 -19 -13 -2 -30 26 -44 22
-33 -9 15 -38 50 -85 60 -79 4 3 13 -2 19 -9 18 -21 0 -50 -129 -209 -61 -76
-110 -143 -108 -149 4 -10 154 167 215 255 20 28 38 54 40 56 2 2 14 -1 28 -7
14 -7 36 -17 50 -24 48 -22 140 -13 207 21 34 17 65 28 69 25 5 -3 9 -1 9 4 0
6 18 41 41 78 40 68 40 70 36 149 -2 57 -10 92 -25 123 -23 43 -28 48 -34 33z"/>
<path d="M7380 7201 c-15 -5 -24 -13 -22 -23 1 -9 -2 -19 -8 -23 -6 -3 -7 0
-4 9 8 21 -2 20 -27 -3 -50 -47 -37 -181 18 -181 8 0 11 -5 7 -12 -4 -7 -3 -8
4 -4 16 9 4 34 -15 32 -9 0 -18 6 -20 14 -4 13 -3 13 6 0 10 -13 12 -13 21 0
7 11 10 11 10 2 0 -7 14 -18 30 -23 32 -12 38 -24 18 -32 -7 -3 -3 -6 9 -6 35
-1 86 27 110 62 17 23 19 33 10 39 -25 16 11 8 58 -13 25 -11 48 -19 51 -17 2
3 -21 15 -50 27 -30 12 -57 29 -60 37 -3 9 -1 12 4 9 13 -8 13 15 0 35 -8 12
-11 13 -19 1 -5 -8 -11 -9 -15 -3 -3 5 1 13 10 16 47 18 -71 72 -126 57z"/>
<path d="M8220 6959 c18 -19 37 -33 42 -31 4 1 8 -4 8 -11 0 -8 -7 -14 -15
-14 -8 0 -15 4 -15 9 0 5 -9 4 -20 -2 -11 -6 -20 -15 -20 -20 0 -14 34 -12 48
2 9 9 12 9 12 -1 0 -7 4 -10 9 -7 5 4 6 -5 2 -20 -7 -27 -23 -34 -141 -64
-106 -26 -168 -44 -193 -57 -15 -7 -32 -11 -36 -8 -5 3 -11 1 -13 -4 -1 -5
-76 -46 -166 -90 -131 -65 -167 -79 -182 -71 -48 26 -108 4 -129 -49 -13 -30
-41 -41 -107 -41 -18 0 -36 -5 -40 -12 -9 -14 97 -3 127 13 15 7 19 6 19 -5 0
-8 14 -26 32 -41 26 -22 37 -25 68 -20 35 6 39 4 103 -68 64 -72 66 -76 56
-106 -7 -20 -8 -44 -2 -68 8 -37 7 -40 -56 -115 -57 -70 -68 -78 -99 -78 -25
0 -43 9 -68 34 -37 37 -47 37 -12 -1 21 -22 21 -23 3 -43 -10 -11 -23 -20 -29
-20 -6 -1 -55 46 -108 102 -54 57 -98 96 -98 88 0 -8 41 -59 90 -112 73 -79
90 -102 90 -127 0 -18 6 -47 14 -66 13 -30 13 -35 -3 -49 -9 -8 -41 -54 -71
-101 -30 -47 -60 -85 -66 -85 -6 0 -19 9 -29 20 -11 12 -52 46 -92 77 -66 51
-73 59 -73 91 0 20 -7 44 -17 54 -13 15 -16 38 -14 132 1 71 -2 117 -8 121 -8
4 -11 -34 -11 -119 l0 -124 -27 -9 c-24 -8 -40 -1 -133 59 -124 82 -133 90
-135 120 -1 15 -14 30 -38 43 l-37 20 0 270 c0 178 -4 265 -10 255 -6 -9 -10
-125 -10 -276 0 -329 11 -317 -170 -199 -278 182 -332 216 -337 211 -5 -4 59
-47 350 -235 53 -35 97 -69 97 -75 -1 -46 -11 -53 -118 -85 -59 -17 -141 -42
-184 -55 -52 -16 -79 -21 -86 -14 -6 6 -22 8 -37 4 -22 -6 -26 -11 -23 -39 4
-42 37 -49 66 -12 20 25 30 29 260 101 l112 35 31 -30 c26 -27 33 -29 52 -20
18 10 24 8 44 -17 l24 -29 -11 28 c-10 28 1 67 19 67 4 0 48 -25 97 -56 49
-31 101 -64 116 -73 18 -10 30 -28 34 -49 4 -22 15 -37 30 -44 l24 -11 0 -234
c0 -149 4 -233 10 -233 6 0 10 85 10 235 0 181 3 235 13 235 11 0 113 -77 179
-136 l27 -24 -46 -77 c-25 -43 -68 -113 -96 -156 -27 -43 -47 -80 -44 -83 6
-6 56 69 146 219 47 77 55 86 70 75 9 -7 51 -41 93 -76 43 -35 83 -62 89 -60
6 2 -35 39 -90 82 -114 89 -111 71 -34 186 72 108 72 108 131 102 47 -4 54 -2
83 27 27 27 30 37 27 74 -3 23 -8 49 -12 58 -5 11 9 36 46 80 80 97 73 92 111
78 28 -10 38 -9 66 5 l32 17 82 -74 c45 -41 113 -104 152 -139 l69 -65 -12
-41 c-10 -34 -10 -47 4 -82 9 -22 25 -47 36 -54 19 -14 18 -17 -31 -113 -28
-54 -59 -108 -69 -121 l-17 -22 -125 120 c-69 66 -131 118 -137 115 -20 -7
-15 -20 11 -31 14 -5 75 -58 136 -117 l112 -109 -33 -61 c-74 -139 -83 -152
-120 -158 -53 -8 -86 -35 -94 -75 -12 -66 47 -124 112 -109 17 4 30 -7 67 -60
26 -35 51 -67 57 -70 5 -4 -13 25 -41 63 -48 67 -51 72 -37 94 28 44 29 67 7
112 l-21 44 59 105 58 106 81 -86 c79 -84 81 -87 66 -110 -9 -13 -16 -41 -17
-63 -2 -75 63 -123 128 -96 53 23 71 51 70 111 -2 52 0 56 52 110 41 43 59 55
72 49 48 -21 81 -16 112 14 40 41 40 83 1 123 -31 31 -67 37 -102 18 -26 -14
-32 -9 -136 118 l-85 103 21 26 c67 85 -29 205 -134 168 l-39 -13 -104 97
c-57 53 -125 116 -151 139 -47 41 -48 44 -44 88 4 32 1 52 -11 71 -10 14 -15
33 -12 41 5 12 3 13 -6 6 -7 -6 -36 -13 -64 -15 l-52 -5 -70 77 c-69 75 -69
76 -55 104 8 15 12 39 8 54 -5 26 0 30 156 108 l161 81 54 -55 c52 -54 52 -55
37 -81 l-15 -26 20 22 c17 19 30 22 90 22 125 -1 211 64 234 175 10 45 9 61
-6 99 -22 58 -49 93 -89 114 l-31 16 34 -34z m178 -1436 c63 -72 63 -73 65
-138 l2 -66 -57 -56 c-48 -47 -59 -54 -72 -44 -9 8 -35 12 -65 9 l-49 -3 -83
88 -82 89 58 111 c32 62 62 116 67 122 5 5 28 15 51 21 41 11 43 10 72 -24 17
-20 58 -68 93 -109z"/>
<path d="M5430 6764 c0 -12 -37 -95 -81 -184 l-81 -162 81 -168 c44 -93 81
-171 81 -174 0 -3 23 -53 50 -111 28 -58 50 -110 50 -115 0 -6 5 -10 10 -10 6
0 10 -5 10 -12 0 -7 60 -134 134 -282 74 -149 198 -399 275 -556 77 -157 160
-322 183 -366 75 -142 106 -232 102 -289 -3 -36 -24 -177 -58 -387 -10 -62
-10 -82 0 -107 l13 -30 -75 -36 c-42 -19 -78 -35 -81 -35 -2 0 -59 -26 -126
-59 -135 -65 -177 -84 -352 -161 -132 -58 -131 -58 -123 -66 6 -5 147 54 410
172 59 26 109 46 111 43 5 -6 -17 -637 -23 -641 -3 -2 -20 -14 -39 -27 l-33
-23 -37 20 c-20 11 -146 70 -281 132 -349 160 -340 155 -340 189 0 23 8 34 36
50 43 26 39 40 -5 18 -30 -15 -32 -14 -65 19 -30 30 -40 34 -84 34 -41 0 -55
-5 -80 -28 -20 -19 -35 -26 -45 -21 -7 5 -146 65 -308 135 -162 69 -325 141
-364 158 -38 18 -114 52 -168 76 -54 24 -100 47 -104 52 -3 6 23 68 58 139
l63 129 140 1 c78 0 512 0 964 -1 l824 -1 -7 23 c-4 13 -34 82 -68 154 l-62
132 -811 -1 c-446 0 -816 3 -822 7 -7 4 -6 15 4 34 7 15 14 33 14 40 0 6 4 12
8 12 10 0 72 132 72 153 0 7 8 22 18 33 14 14 17 26 11 42 -5 12 -4 21 1 19 5
-1 55 90 111 203 133 270 172 355 154 340 -8 -7 -15 -19 -15 -26 0 -8 -4 -14
-10 -14 -5 0 -10 -12 -10 -27 0 -21 -3 -24 -12 -15 -7 7 -17 12 -22 12 -6 0
-3 -7 8 -15 16 -12 15 -35 -2 -35 -4 0 -19 29 -32 65 -13 36 -27 65 -30 65 -3
0 -14 26 -25 58 -21 64 -63 134 -76 127 -4 -3 -17 -29 -27 -58 -11 -29 -54
-122 -95 -207 -137 -282 -178 -374 -172 -388 2 -7 0 -10 -5 -7 -6 3 -36 -49
-67 -117 -31 -68 -141 -289 -243 -493 -194 -388 -242 -488 -361 -750 -40 -88
-76 -162 -79 -165 -13 -10 -30 -49 -30 -68 0 -23 38 -36 57 -20 8 6 15 9 17 7
3 -2 35 -56 73 -119 l69 -116 199 413 c110 227 204 413 210 412 5 0 53 -21
105 -47 l95 -48 8 -84 c4 -47 5 -107 2 -135 -3 -27 1 -141 10 -253 l16 -203
-31 -29 c-16 -15 -30 -33 -30 -39 0 -25 24 -60 45 -65 30 -8 32 -21 45 -234
14 -233 26 -351 35 -360 4 -4 5 31 1 78 -3 47 -11 150 -16 230 -5 80 -12 178
-16 218 -6 62 -5 72 9 72 11 0 19 14 24 42 9 46 4 43 257 152 43 18 66 34 66
45 0 10 -3 12 -8 5 -8 -12 -308 -144 -328 -144 -28 0 -37 36 -50 203 -7 94
-16 196 -19 226 -5 53 -5 54 13 38 10 -9 22 -17 27 -17 5 0 -1 9 -13 20 -20
19 -22 31 -22 120 0 55 4 100 8 100 7 0 188 -77 317 -135 17 -7 104 -44 195
-83 243 -103 220 -89 220 -138 0 -41 -3 -45 -40 -64 -48 -25 -52 -25 -79 -1
-13 11 -30 17 -38 14 -12 -5 -14 -3 -8 7 5 9 4 11 -4 6 -14 -9 -3 -29 13 -23
12 5 49 -31 54 -54 6 -27 22 -34 22 -9 0 20 10 29 45 46 l45 21 27 -29 c22
-23 35 -28 75 -28 38 0 54 6 80 29 l32 28 65 -29 c37 -16 184 -84 329 -150
l262 -122 0 -41 c0 -22 -5 -46 -12 -53 -9 -9 -9 -12 -1 -12 7 0 15 5 18 10 4
6 16 3 32 -9 28 -22 75 -19 105 6 40 35 27 126 -19 138 -20 5 -23 12 -23 58 0
85 19 517 26 575 l6 53 91 43 c123 57 120 56 137 29 11 -18 40 -33 100 -53 47
-15 112 -40 145 -55 121 -55 170 -78 173 -80 1 -1 32 -68 67 -149 62 -143 63
-147 48 -174 -10 -18 -14 -38 -10 -54 6 -21 11 -24 33 -20 20 4 32 -1 46 -19
17 -22 18 -22 9 -2 -6 12 -11 35 -11 50 0 16 -6 38 -14 48 -12 16 -6 29 56
117 37 54 73 109 80 123 7 16 17 24 27 21 9 -3 104 -30 212 -60 108 -31 203
-56 213 -56 9 0 16 -6 15 -12 -8 -63 29 -108 90 -108 65 0 107 70 77 129 -16
30 -16 31 17 68 33 38 211 258 255 317 l24 31 -27 -30 c-15 -16 -46 -50 -69
-75 -24 -25 -82 -92 -131 -150 -48 -58 -91 -109 -96 -114 -4 -5 -23 -6 -42 -2
-24 4 -38 14 -46 34 -7 15 -58 102 -113 194 -66 110 -97 171 -92 180 5 7 10
21 11 31 5 32 30 70 130 197 81 103 103 125 125 126 15 1 34 7 43 14 32 27 8
90 -35 90 -20 0 -50 -45 -50 -75 0 -8 -46 -73 -101 -143 -56 -70 -107 -135
-113 -144 -12 -19 -65 -25 -81 -8 -7 6 -9 -13 -7 -50 l4 -60 -71 -94 c-40 -51
-82 -103 -95 -115 l-24 -22 -102 202 c-115 230 -114 206 -8 260 61 31 92 36
104 18 4 -6 20 -9 39 -6 18 3 37 1 41 -3 5 -5 7 13 6 41 -3 31 1 56 10 67 11
15 11 16 -3 5 -12 -10 -20 -9 -37 3 -22 15 -22 19 -22 294 0 191 3 281 11 286
7 4 8 20 4 43 -4 20 -9 78 -12 129 l-4 93 30 10 c46 16 38 28 -11 18 -23 -6
-48 -7 -57 -4 -12 5 -12 2 2 -13 13 -15 17 -38 17 -109 0 -49 -3 -93 -7 -97
-4 -3 -12 -21 -18 -40 -11 -30 -10 -33 7 -28 17 4 18 -9 18 -286 0 -281 -1
-292 -20 -302 -11 -6 -20 -21 -20 -33 0 -12 -4 -27 -8 -33 -7 -10 -164 -96
-168 -91 -1 1 -63 124 -137 272 -129 258 -205 415 -287 590 -20 44 -128 267
-239 495 -112 228 -259 531 -328 672 l-126 258 39 47 c54 67 237 274 263 297
25 22 27 42 6 50 -9 3 -26 -9 -45 -32 -16 -20 -47 -58 -67 -84 -21 -26 -76
-92 -123 -148 -70 -82 -87 -98 -96 -85 -6 8 -15 11 -19 7 -5 -4 -6 -2 -2 4 5
8 -139 319 -181 389 -11 20 -11 20 -12 -1z m1919 -3119 l113 -189 -26 -23
c-14 -12 -32 -20 -39 -18 -6 2 -79 22 -162 45 -131 35 -233 67 -243 76 -7 5
22 51 79 124 32 41 77 99 99 128 23 29 47 52 53 49 7 -2 63 -88 126 -192z"/>
<path d="M4263 6718 c-19 -25 -21 -46 -7 -67 8 -11 21 -21 29 -21 20 0 45 -29
151 -178 52 -73 99 -130 105 -127 5 4 -5 27 -23 53 -60 89 -167 230 -178 237
-7 4 -9 19 -5 36 5 22 1 34 -19 54 -28 28 -39 31 -53 13z"/>
<path d="M2900 5941 c0 -5 -19 -6 -42 -4 -57 6 -93 -9 -113 -48 -23 -43 -12
-92 25 -121 l29 -23 -19 -100 c-30 -153 -25 -142 -72 -150 -56 -9 -120 -37
-144 -63 l-20 -21 -82 77 c-45 42 -82 81 -82 86 0 17 125 174 143 179 20 6 23
37 5 55 -15 15 -38 16 -38 2 0 -5 7 -10 15 -10 8 0 15 -7 15 -16 0 -8 -4 -12
-10 -9 -5 3 -15 -8 -22 -25 -15 -35 -109 -159 -121 -160 -5 0 -40 28 -78 63
l-69 62 0 58 c0 91 -42 149 -117 163 -102 19 -203 -84 -179 -181 12 -47 66
-96 114 -102 50 -7 48 -3 87 -151 21 -80 24 -105 15 -122 -9 -16 -8 -25 0 -36
7 -7 10 -25 8 -38 -4 -22 -1 -20 34 16 21 22 38 46 38 53 0 10 83 117 139 177
3 4 44 -28 90 -71 l84 -79 -17 -43 c-11 -27 -18 -71 -18 -112 0 -109 55 -180
166 -217 68 -22 173 9 230 69 16 17 33 28 39 24 5 -3 7 0 5 8 -3 8 1 28 9 46
29 71 10 188 -39 240 -18 20 -19 25 -7 40 12 16 12 17 -1 6 -13 -10 -27 -8
-73 10 -31 12 -57 28 -57 35 0 10 20 109 45 217 3 14 13 21 32 23 63 4 102 91
69 151 -8 14 -12 31 -9 38 3 7 2 13 -1 13 -3 0 -6 -4 -6 -9z m-550 -368 c0 -7
-62 -86 -106 -136 -42 -48 -68 -54 -78 -19 -3 10 -17 58 -31 107 -14 50 -28
97 -30 105 -4 11 6 20 29 28 18 7 41 21 51 32 17 19 19 18 91 -47 41 -37 74
-68 74 -70z"/>
<path d="M1799 5547 c-47 -36 -52 -105 -10 -148 33 -33 67 -37 111 -14 56 29
67 93 24 144 -21 26 -33 31 -67 31 -23 0 -49 -6 -58 -13z"/>
<path d="M7530 4683 c-14 -2 -36 -13 -50 -24 -14 -10 -18 -17 -9 -13 10 3 20
1 23 -4 6 -10 -25 -47 -44 -54 -7 -2 -13 -26 -13 -53 -2 -47 -1 -50 25 -53 26
-3 27 -2 18 28 -5 19 -5 28 1 25 5 -4 9 1 9 9 0 9 6 16 14 16 9 0 16 12 18 33
l3 32 29 -30 28 -30 -31 -3 c-23 -2 -31 -8 -31 -23 0 -16 7 -19 53 -18 28 0
46 3 40 6 -28 11 -11 23 28 21 30 -2 43 1 46 12 4 12 3 13 -5 1 -7 -9 -19 -11
-37 -7 -26 7 -27 8 -10 26 19 21 65 23 65 3 0 -7 5 -13 10 -13 6 0 10 -12 10
-27 0 -22 2 -25 10 -13 8 12 10 11 10 -6 0 -11 -6 -21 -12 -22 -82 -9 -232
-39 -286 -56 -19 -6 -23 -4 -22 11 4 36 -1 49 -11 28 -7 -15 -8 -11 -5 18 3
22 1 35 -5 32 -15 -10 -10 -64 11 -104 22 -44 70 -88 106 -97 84 -21 187 30
215 106 l17 45 62 3 c40 2 66 -1 70 -8 11 -18 19 11 9 35 -5 14 -8 16 -8 4 -1
-18 -16 -20 -83 -13 -43 5 -47 8 -53 37 -9 43 -33 79 -47 71 -7 -5 -9 -2 -6 8
7 18 -65 63 -87 54 -8 -3 -15 0 -15 6 0 6 -6 5 -17 -3 -11 -10 -14 -10 -9 -1
4 6 4 11 -1 11 -4 -1 -19 -4 -33 -6z"/>
<path d="M8311 4630 c-55 -26 -114 -86 -108 -112 3 -10 1 -16 -4 -12 -12 7
-11 -3 1 -27 7 -11 7 -19 1 -19 -5 0 -12 6 -15 13 -3 6 -3 -10 0 -38 10 -83
40 -128 111 -164 81 -41 177 -21 244 50 97 103 55 266 -80 314 -58 20 -97 19
-150 -5z"/>
<path d="M2557 4600 c-35 -28 -41 -52 -26 -108 11 -46 13 -48 43 -44 53 6 69
-19 130 -198 31 -91 56 -168 56 -171 0 -4 -12 -9 -27 -12 -49 -11 -93 -46
-113 -90 -24 -51 -25 -86 -5 -135 21 -50 51 -79 94 -93 20 -7 39 -17 43 -23 5
-8 8 -7 8 2 0 7 13 12 33 12 86 1 170 99 157 185 -9 57 -48 107 -102 129 -23
10 -49 21 -57 25 -22 11 -142 373 -129 388 6 7 14 13 19 13 6 0 451 -291 465
-304 1 -1 4 -17 8 -37 6 -34 3 -39 -56 -98 -76 -74 -69 -82 9 -8 57 54 53 52
167 58 23 1 25 4 12 11 -9 5 -16 22 -16 38 0 55 -54 82 -97 48 -8 -6 -26 1
-55 22 -24 17 -119 81 -213 142 -209 136 -218 143 -210 180 5 22 1 34 -23 58
-36 36 -78 39 -115 10z"/>
<path d="M2370 4506 c-270 -91 -405 -139 -411 -148 -3 -5 -10 -8 -15 -6 -12 4
-141 -30 -181 -48 -17 -8 -63 -14 -102 -14 -45 0 -71 -4 -71 -11 0 -6 -7 -9
-15 -5 -11 4 -15 -2 -15 -22 0 -30 34 -92 50 -92 6 0 8 -5 4 -12 -5 -8 -2 -9
9 -5 10 4 16 2 14 -6 -1 -7 4 -11 11 -9 8 1 11 -2 7 -7 -10 -18 52 -41 114
-42 43 -1 72 4 105 21 25 12 44 25 42 29 -3 4 5 8 18 9 16 1 45 -21 101 -78
43 -44 82 -80 86 -80 5 0 6 -13 3 -29 -4 -16 -1 -32 5 -36 11 -6 -42 -74 -136
-174 -24 -24 -43 -49 -43 -55 -1 -15 -36 -56 -49 -56 -13 0 -5 41 11 52 7 4 9
8 4 8 -5 0 -3 7 4 15 7 8 16 12 21 9 5 -3 9 -1 9 4 0 14 -25 21 -51 15 -15 -4
-20 -3 -15 5 5 8 -3 12 -23 12 -17 0 -31 -4 -31 -10 0 -5 6 -8 13 -6 6 1 9 1
5 -1 -4 -2 -4 -11 -1 -19 3 -8 -1 -14 -8 -14 -7 0 -5 -6 7 -14 10 -8 16 -18
12 -21 -11 -11 -36 19 -34 41 0 10 -3 19 -8 19 -5 0 -10 -17 -11 -37 -1 -28 3
-38 17 -41 11 -3 18 -14 18 -28 0 -18 3 -20 12 -11 32 32 37 3 9 -51 -15 -30
-20 -34 -24 -20 -4 14 -5 13 -6 -4 0 -13 -5 -23 -11 -23 -5 0 -7 7 -4 15 4 8
1 15 -5 15 -18 0 -13 -28 7 -39 42 -22 147 13 171 57 9 17 9 108 1 128 -5 11
117 157 158 188 15 11 31 16 45 11 12 -3 94 -85 182 -181 228 -248 230 -251
215 -269 -6 -8 -8 -20 -4 -26 4 -8 3 -9 -4 -5 -8 5 -11 -5 -8 -35 3 -26 -1
-52 -11 -68 l-15 -26 19 21 c17 19 21 20 38 8 11 -8 25 -12 33 -9 7 2 10 0 7
-5 -8 -13 41 -13 65 0 15 8 30 -4 95 -78 43 -48 89 -108 104 -134 15 -27 34
-48 46 -50 22 -3 176 -178 168 -191 -3 -4 -2 -19 1 -33 5 -19 13 -24 36 -24
24 0 41 -14 100 -82 60 -69 70 -87 65 -108 -11 -45 -6 -65 20 -88 19 -16 33
-21 48 -15 12 4 31 7 42 8 17 0 20 6 18 44 -2 52 -11 62 -62 76 -29 8 -54 28
-108 90 -76 87 -93 113 -93 143 0 14 -5 19 -17 16 -10 -3 -25 1 -34 8 -40 31
-137 157 -148 191 -8 25 -19 37 -31 37 -10 0 -60 45 -114 103 l-96 102 6 46
c5 39 2 50 -19 74 -18 22 -33 29 -66 30 -42 2 -45 4 -238 216 -218 239 -231
255 -215 271 6 6 8 16 6 23 -3 7 27 54 65 106 67 87 85 119 60 103 -6 -3 -42
-48 -80 -100 -55 -74 -75 -94 -94 -94 -17 0 -53 27 -121 93 l-95 92 16 40 c12
28 16 56 12 96 l-5 55 264 88 c145 48 264 92 264 97 0 12 1 13 -140 -35z"/>
<path d="M7343 3198 c-203 -242 -306 -353 -331 -358 -20 -4 -28 -13 -33 -37
-8 -41 -19 -57 -123 -180 -47 -56 -82 -105 -77 -108 11 -6 26 8 78 73 90 113
147 172 164 172 20 0 39 28 39 57 0 15 153 201 274 333 65 72 113 140 97 140
-5 0 -45 -42 -88 -92z"/>
<path d="M2098 3112 c-46 -22 -78 -51 -78 -71 0 -9 -7 -25 -15 -35 -20 -26
-18 -83 3 -123 29 -53 68 -77 136 -81 55 -3 66 0 109 28 26 18 47 39 47 47 0
10 6 12 22 7 19 -6 21 -5 11 8 -7 8 -9 25 -6 38 4 16 3 21 -6 16 -6 -4 -8 -12
-5 -18 5 -7 -10 -9 -47 -4 -30 3 -87 9 -127 12 -40 4 -70 9 -68 11 2 3 -10 17
-27 33 -27 24 -29 30 -18 44 19 23 29 20 23 -9 -2 -14 0 -25 4 -25 5 0 48 -3
97 -5 85 -5 87 -5 87 17 0 17 3 19 12 10 7 -7 27 -12 46 -12 30 0 33 2 27 23
-9 32 -79 93 -116 101 -48 9 -71 7 -111 -12z"/>
<path d="M7861 3083 c-1 -8 -15 -13 -33 -13 -46 0 -108 -19 -141 -42 -27 -20
-28 -20 -65 1 -33 19 -35 19 -14 2 12 -11 28 -21 35 -24 9 -3 8 -9 -4 -23 -34
-42 -54 -108 -52 -175 l2 -66 -77 -33 c-42 -19 -120 -55 -173 -80 -53 -26
-118 -55 -145 -66 -27 -10 -80 -35 -119 -55 -38 -21 -100 -50 -137 -64 -38
-15 -68 -31 -68 -37 0 -13 31 -3 139 48 51 24 101 44 111 44 10 0 28 8 41 19
21 16 182 94 368 178 l64 28 51 -50 c74 -73 161 -94 257 -60 66 24 109 62 136
123 49 105 12 232 -85 293 -25 16 -54 29 -63 29 -10 0 -20 8 -22 18 -3 9 -5
11 -6 5z"/>
<path d="M2631 2899 c-20 -8 -22 -11 -10 -27 13 -15 12 -16 -3 -3 -16 12 -20
10 -38 -10 -10 -13 -19 -28 -20 -34 0 -5 5 -3 10 5 6 10 10 11 10 3 0 -25 -2
-28 -16 -25 -13 3 -13 -1 -4 -19 9 -15 9 -19 1 -14 -8 4 -10 -3 -6 -27 18
-100 129 -143 216 -82 84 58 74 184 -18 232 -26 14 -88 15 -122 1z"/>
<path d="M6254 2670 c-5 -5 -34 -11 -63 -12 l-54 -2 -24 -53 c-13 -29 -36 -61
-51 -73 l-27 -20 28 11 c15 7 27 16 27 21 0 5 17 -8 38 -29 l38 -38 -18 -90
c-10 -49 -23 -113 -28 -141 l-11 -51 -49 -6 c-58 -7 -79 -19 -108 -61 -24 -35
-30 -103 -12 -136 8 -16 -12 -37 -145 -155 l-154 -136 -26 17 c-31 20 -79 13
-110 -16 l-21 -20 -80 43 c-135 73 -224 129 -233 146 -4 9 -11 31 -14 49 -6
32 -4 34 128 133 75 56 134 104 131 106 -2 3 -60 -38 -129 -90 -135 -103 -161
-120 -171 -110 -3 3 -6 113 -6 244 0 228 1 239 20 249 11 6 22 21 26 34 4 18
24 32 80 56 95 42 90 50 -6 10 l-73 -30 -22 20 c-40 38 -95 7 -95 -53 0 -20
-19 -34 -131 -95 -119 -65 -135 -71 -173 -66 -35 5 -47 2 -72 -19 l-30 -25
-75 47 c-84 54 -183 110 -157 89 9 -7 64 -44 122 -81 67 -43 106 -74 106 -85
0 -10 -25 -31 -59 -52 -36 -21 -57 -39 -54 -48 4 -10 8 -10 17 1 6 8 29 26 50
40 l39 26 28 -30 c28 -30 65 -37 97 -20 14 7 44 -15 147 -105 123 -108 154
-144 123 -144 -7 0 -107 9 -223 20 -115 11 -218 20 -228 20 -15 0 -18 7 -17
38 6 114 -4 142 -41 119 -13 -8 -45 -22 -71 -32 -26 -10 -45 -21 -42 -26 3 -5
-3 -6 -12 -2 -13 5 -16 3 -11 -10 5 -14 3 -15 -12 -5 -15 9 -47 3 -165 -33
-163 -49 -158 -44 -109 -122 68 -108 228 -145 338 -79 l29 18 66 -49 c36 -27
84 -61 106 -75 33 -21 43 -35 48 -64 12 -73 96 -103 150 -53 24 22 27 32 25
77 l-3 52 89 67 c86 64 91 66 120 55 l30 -12 3 -96 3 -95 -43 -12 c-110 -33
-169 -176 -119 -288 28 -60 84 -94 163 -100 76 -5 135 20 182 80 29 36 31 45
31 116 l-1 77 93 45 c51 24 93 41 93 37 0 -4 10 -16 22 -28 31 -28 89 -27 125
4 24 21 28 32 28 77 l0 53 100 89 c55 49 121 109 147 133 l47 44 33 -20 c63
-38 149 -18 188 45 19 30 22 45 17 86 -6 47 -5 50 20 60 80 30 183 84 183 95
0 9 -37 -5 -102 -36 -112 -55 -127 -58 -151 -32 -22 25 -22 42 10 193 21 101
30 129 42 129 9 0 27 7 40 16 22 16 26 16 55 -1 17 -10 48 -32 69 -48 21 -16
41 -27 44 -23 8 7 12 4 -63 54 -59 40 -62 43 -68 94 -4 29 -12 58 -18 65 -7 9
-7 17 2 28 14 17 10 21 -6 5z m-1166 -467 l2 -243 -25 0 c-24 0 -119 74 -232
183 -47 45 -50 52 -40 74 8 18 8 32 -1 56 -6 17 -11 32 -9 33 29 24 268 143
282 142 19 -3 20 -12 23 -245z m-276 -282 c192 -18 218 -23 218 -41 0 -5 -46
-42 -102 -83 -99 -73 -102 -75 -126 -59 -19 12 -32 14 -62 6 -37 -10 -38 -10
-124 64 -48 42 -86 83 -86 93 0 38 10 47 48 42 20 -2 125 -12 234 -22z m473
-149 c238 -140 238 -141 103 -206 l-93 -44 -47 44 c-30 28 -63 48 -92 56 -51
13 -48 6 -46 127 1 57 5 78 18 88 21 16 15 18 157 -65z"/>
<path d="M2504 2486 c-27 -27 -34 -42 -34 -75 0 -78 42 -121 120 -121 34 0 48
6 76 34 28 28 34 41 34 78 0 75 -41 117 -113 118 -43 0 -54 -5 -83 -34z"/>
<path d="M3568 2397 c-24 -9 -28 -17 -28 -50 0 -52 13 -73 54 -87 28 -9 40 -8
70 7 l36 17 168 -82 c92 -45 171 -82 176 -82 22 0 -16 22 -170 98 -89 44 -164
88 -168 97 -3 9 -6 27 -6 40 0 47 -67 68 -132 42z"/>
<path d="M5720 2324 c-122 -75 -132 -79 -144 -62 -34 45 -88 48 -127 7 -55
-59 -27 -128 52 -129 41 0 86 36 91 73 2 14 33 40 100 82 89 55 118 75 107 75
-2 0 -38 -21 -79 -46z"/>
<path d="M3390 1991 c7 -27 7 -27 -39 -30 -61 -3 -93 -19 -112 -58 -9 -18 -21
-38 -26 -45 -5 -7 -14 -25 -20 -39 -9 -21 -8 -26 5 -28 87 -12 159 18 197 82
25 43 36 125 15 112 -5 -3 -10 1 -10 10 0 10 5 13 13 9 6 -4 8 -3 4 1 -4 5
-14 10 -21 11 -11 1 -12 -5 -6 -25z"/>
</g>
</svg>
